<mxfile host="app.diagrams.net" modified="2024-04-30T07:39:48.465Z" agent="Mozilla/5.0 (Windows NT 10.0; Win64; x64) AppleWebKit/537.36 (KHTML, like Gecko) Chrome/124.0.0.0 Safari/537.36 Edg/124.0.0.0" etag="Xc4y1GqApiwvOwwD69Y0" version="24.3.1" type="device">
  <diagram name="Page-1" id="_80r8WxA15RgX0-qnVgx">
    <mxGraphModel dx="786" dy="459" grid="1" gridSize="10" guides="1" tooltips="1" connect="1" arrows="1" fold="1" page="1" pageScale="1" pageWidth="850" pageHeight="1100" math="0" shadow="0">
      <root>
        <mxCell id="0" />
        <mxCell id="1" parent="0" />
        <mxCell id="L9drhv9csagTETWx4Y0F-1" value="A" style="whiteSpace=wrap;strokeWidth=2;" parent="1" vertex="1">
          <mxGeometry x="56" y="20" width="26" height="34" as="geometry" />
        </mxCell>
        <mxCell id="L9drhv9csagTETWx4Y0F-2" value="B" style="whiteSpace=wrap;strokeWidth=2;" parent="1" vertex="1">
          <mxGeometry x="20" y="104" width="24" height="34" as="geometry" />
        </mxCell>
        <mxCell id="L9drhv9csagTETWx4Y0F-3" value="C" style="whiteSpace=wrap;strokeWidth=2;" parent="1" vertex="1">
          <mxGeometry x="94" y="104" width="25" height="34" as="geometry" />
        </mxCell>
        <mxCell id="L9drhv9csagTETWx4Y0F-4" value="D" style="whiteSpace=wrap;strokeWidth=2;" parent="1" vertex="1">
          <mxGeometry x="57" y="187" width="25" height="34" as="geometry" />
        </mxCell>
        <mxCell id="L9drhv9csagTETWx4Y0F-5" value="" style="curved=1;startArrow=none;endArrow=block;exitX=0.013721961241502028;exitY=0.9200313059992976;entryX=0.5013020833333334;entryY=-0.00980388416963465;rounded=0;" parent="1" source="L9drhv9csagTETWx4Y0F-1" target="L9drhv9csagTETWx4Y0F-2" edge="1">
          <mxGeometry relative="1" as="geometry">
            <Array as="points">
              <mxPoint x="32" y="79" />
            </Array>
          </mxGeometry>
        </mxCell>
        <mxCell id="L9drhv9csagTETWx4Y0F-6" value="" style="curved=1;startArrow=none;endArrow=block;exitX=1.0009014239678016;exitY=0.9200313059992976;entryX=0.4939583206176758;entryY=-0.00980388416963465;rounded=0;" parent="1" source="L9drhv9csagTETWx4Y0F-1" target="L9drhv9csagTETWx4Y0F-3" edge="1">
          <mxGeometry relative="1" as="geometry">
            <Array as="points">
              <mxPoint x="106" y="79" />
            </Array>
          </mxGeometry>
        </mxCell>
        <mxCell id="L9drhv9csagTETWx4Y0F-7" value="" style="curved=1;startArrow=none;endArrow=block;exitX=0.5013020833333334;exitY=0.9803922316607308;entryX=-0.012395839691162109;entryY=0.09100602316812502;rounded=0;" parent="1" source="L9drhv9csagTETWx4Y0F-2" target="L9drhv9csagTETWx4Y0F-4" edge="1">
          <mxGeometry relative="1" as="geometry">
            <Array as="points">
              <mxPoint x="32" y="162" />
            </Array>
          </mxGeometry>
        </mxCell>
        <mxCell id="L9drhv9csagTETWx4Y0F-8" value="" style="curved=1;startArrow=none;endArrow=block;exitX=0.4939583206176758;exitY=0.9803922316607308;entryX=0.9876041603088379;entryY=0.09100602316812502;rounded=0;" parent="1" source="L9drhv9csagTETWx4Y0F-3" target="L9drhv9csagTETWx4Y0F-4" edge="1">
          <mxGeometry relative="1" as="geometry">
            <Array as="points">
              <mxPoint x="106" y="162" />
            </Array>
          </mxGeometry>
        </mxCell>
      </root>
    </mxGraphModel>
  </diagram>
</mxfile>
